<?xml version="1.0" standalone="no"?>
<!DOCTYPE svg PUBLIC "-//W3C//DTD SVG 20010904//EN"
 "http://www.w3.org/TR/2001/REC-SVG-20010904/DTD/svg10.dtd">
<svg version="1.0" xmlns="http://www.w3.org/2000/svg"
 width="200.000000pt" height="200.000000pt" viewBox="0 0 200.000000 200.000000"
 preserveAspectRatio="xMidYMid meet">
<metadata>
Created by potrace 1.14, written by Peter Selinger 2001-2017
</metadata>
<g transform="translate(0.000000,200.000000) scale(0.100000,-0.100000)"
fill="#000000" stroke="none">
<path d="M545 1445 l-450 -444 450 -451 450 -450 450 450 450 451 -250 246
c-137 135 -340 335 -450 444 l-200 197 -450 -443z m608 88 c229 -67 397 -290
397 -528 0 -248 -176 -477 -415 -540 -188 -49 -390 8 -531 149 -171 171 -212
423 -104 639 117 235 398 355 653 280z"/>
<path d="M910 1489 c-78 -13 -186 -67 -250 -126 -164 -151 -206 -392 -102
-587 31 -58 142 -175 187 -195 17 -7 47 -22 68 -33 21 -11 47 -18 58 -15 10 3
22 1 25 -5 3 -5 20 -6 36 -3 21 5 28 4 24 -4 -9 -14 51 -14 114 0 25 5 55 11
67 13 86 13 247 145 297 243 96 191 66 405 -81 563 -67 73 -183 134 -283 150
-74 11 -84 11 -160 -1z m164 -66 c9 -22 0 -28 -63 -47 -61 -18 -58 -18 -63 8
-2 15 8 23 47 37 64 22 71 23 79 2z m-176 -9 c14 -9 22 -26 22 -44 0 -48 -9
-60 -46 -60 -33 0 -34 -1 -34 -40 0 -38 -2 -40 -30 -40 l-31 0 3 58 3 57 43 3
c28 2 42 8 42 18 0 10 -12 14 -45 14 -37 0 -45 3 -45 18 0 10 3 22 7 25 12 13
89 7 111 -9z m342 -15 c0 -14 -7 -19 -28 -19 -35 0 -52 -16 -52 -49 0 -32 27
-61 57 -61 30 0 32 -35 1 -43 -28 -8 -84 16 -97 41 -21 39 -13 96 17 124 42
40 102 44 102 7z m-160 -74 c0 -22 -4 -25 -40 -25 -29 0 -40 -4 -40 -15 0 -11
11 -15 40 -15 35 0 40 -3 40 -24 0 -22 -3 -23 -67 -22 -65 2 -68 3 -67 26 1
14 2 42 3 63 l1 37 65 0 c63 0 65 -1 65 -25z m-364 -145 c0 -11 -4 -20 -8 -20
-4 0 -8 9 -8 20 0 11 4 20 8 20 4 0 8 -9 8 -20z m87 -2 c6 -23 -9 -24 -17 -1
-6 15 -8 15 -16 3 -8 -13 -10 -12 -10 2 0 23 37 19 43 -4z m77 3 c0 -14 -2
-14 -10 -1 -6 10 -10 11 -10 3 0 -7 -4 -13 -9 -13 -22 0 -17 25 5 26 16 1 24
-3 24 -15z m30 15 c0 -3 -4 -8 -10 -11 -5 -3 -10 -1 -10 4 0 6 5 11 10 11 6 0
10 -2 10 -4z m154 -16 c5 -1 12 4 16 10 5 8 9 7 13 -4 5 -14 0 -16 -28 -14
-19 1 -35 7 -35 13 0 5 -5 3 -10 -5 -5 -8 -10 -10 -10 -4 0 18 12 24 29 15 9
-5 20 -10 25 -11z m82 0 c0 -11 -4 -20 -8 -20 -4 0 -8 9 -8 20 0 11 4 20 8 20
4 0 8 -9 8 -20z m40 1 c0 -11 -4 -17 -8 -15 -4 3 -8 12 -8 20 0 8 4 14 8 14 4
0 8 -9 8 -19z m62 5 c-7 -8 -15 -12 -17 -11 -5 6 10 25 20 25 5 0 4 -6 -3 -14z
m38 -6 c0 -11 -4 -20 -8 -20 -4 0 -8 9 -8 20 0 11 4 20 8 20 4 0 8 -9 8 -20z
m-536 0 c0 -5 -5 -10 -11 -10 -5 0 -7 5 -4 10 3 6 8 10 11 10 2 0 4 -4 4 -10z
m0 -79 c24 -17 25 -24 28 -125 l3 -106 -35 0 c-19 0 -38 5 -41 10 -4 7 -12 7
-25 0 -36 -20 -87 -12 -109 16 -29 37 -26 70 8 105 23 22 39 29 70 29 42 0 63
16 40 32 -13 8 -57 6 -99 -3 -11 -3 -15 4 -15 26 0 26 4 31 35 36 50 9 111 0
140 -20z m248 14 c17 -5 22 -14 22 -41 0 -19 -2 -34 -3 -34 -2 0 -19 7 -37 17
-30 14 -36 14 -59 2 -20 -11 -27 -24 -29 -53 -6 -67 47 -97 103 -60 14 9 25
15 26 13 9 -55 6 -71 -20 -81 -14 -5 -50 -8 -80 -5 -46 3 -59 9 -83 36 -23 26
-28 40 -28 86 0 46 5 60 28 86 18 20 42 34 68 39 39 8 50 7 92 -5z m262 -11
c10 -11 18 -9 49 7 29 15 44 17 63 10 42 -16 49 -33 51 -142 l2 -104 -40 0
-40 0 -1 83 c-1 88 -9 108 -43 97 -19 -6 -21 -14 -21 -96 l0 -89 -40 0 -40 0
0 89 c0 92 -6 107 -40 96 -17 -5 -20 -17 -22 -93 l-3 -87 -35 0 -35 0 -3 123
-3 122 35 0 c19 0 37 -4 41 -9 3 -6 18 -5 36 3 35 15 73 10 89 -10z"/>
<path d="M647 973 c-4 -3 -7 -15 -7 -25 0 -30 54 -21 58 10 3 17 -1 22 -21 22
-13 0 -27 -3 -30 -7z"/>
</g>
</svg>
